<mxfile host="app.diagrams.net" agent="Mozilla/5.0 (Windows NT 10.0; Win64; x64) AppleWebKit/537.36 (KHTML, like Gecko) Chrome/127.0.0.0 Safari/537.36 Edg/127.0.0.0" version="24.7.8">
  <diagram name="第 1 页" id="EPzqeLMealoHeMvQTuCS">
    <mxGraphModel dx="2040" dy="1412" grid="1" gridSize="10" guides="1" tooltips="1" connect="1" arrows="1" fold="1" page="1" pageScale="1" pageWidth="1169" pageHeight="827" math="0" shadow="0">
      <root>
        <mxCell id="0" />
        <mxCell id="1" parent="0" />
        <mxCell id="y7ZG7yPl_qGi4kwekcJh-1" value="" style="edgeStyle=orthogonalEdgeStyle;rounded=0;orthogonalLoop=1;jettySize=auto;html=1;fontFamily=Lucida Console;" edge="1" parent="1" source="y7ZG7yPl_qGi4kwekcJh-7" target="y7ZG7yPl_qGi4kwekcJh-9">
          <mxGeometry relative="1" as="geometry" />
        </mxCell>
        <mxCell id="y7ZG7yPl_qGi4kwekcJh-2" value="" style="edgeStyle=orthogonalEdgeStyle;rounded=0;orthogonalLoop=1;jettySize=auto;html=1;fontFamily=Lucida Console;" edge="1" parent="1" source="y7ZG7yPl_qGi4kwekcJh-6" target="y7ZG7yPl_qGi4kwekcJh-10">
          <mxGeometry relative="1" as="geometry" />
        </mxCell>
        <mxCell id="y7ZG7yPl_qGi4kwekcJh-3" style="edgeStyle=orthogonalEdgeStyle;rounded=0;orthogonalLoop=1;jettySize=auto;html=1;exitX=1;exitY=0.5;exitDx=0;exitDy=0;fontFamily=Lucida Console;" edge="1" parent="1" source="y7ZG7yPl_qGi4kwekcJh-42" target="y7ZG7yPl_qGi4kwekcJh-7">
          <mxGeometry relative="1" as="geometry">
            <mxPoint x="250" y="230" as="sourcePoint" />
          </mxGeometry>
        </mxCell>
        <mxCell id="y7ZG7yPl_qGi4kwekcJh-4" style="edgeStyle=orthogonalEdgeStyle;rounded=0;orthogonalLoop=1;jettySize=auto;html=1;entryX=0;entryY=0.5;entryDx=0;entryDy=0;exitX=1;exitY=0.5;exitDx=0;exitDy=0;fontFamily=Lucida Console;" edge="1" parent="1" source="y7ZG7yPl_qGi4kwekcJh-43" target="y7ZG7yPl_qGi4kwekcJh-6">
          <mxGeometry relative="1" as="geometry">
            <mxPoint x="250" y="450" as="sourcePoint" />
            <mxPoint x="330" y="240" as="targetPoint" />
          </mxGeometry>
        </mxCell>
        <mxCell id="y7ZG7yPl_qGi4kwekcJh-5" value="&lt;font&gt;Input&lt;/font&gt;" style="swimlane;whiteSpace=wrap;html=1;fontFamily=Lucida Console;fillColor=#0060ff;strokeColor=#0060ff;rounded=1;shadow=0;dashed=1;strokeWidth=2;swimlaneFillColor=none;fontColor=#ffffff;gradientColor=none;align=center;verticalAlign=middle;fontSize=12;fontStyle=1;" vertex="1" parent="1">
          <mxGeometry x="280" y="120" width="200" height="410" as="geometry" />
        </mxCell>
        <mxCell id="y7ZG7yPl_qGi4kwekcJh-6" value="&lt;font&gt;D&lt;sub&gt;1&lt;/sub&gt;(B, L)&lt;/font&gt;" style="rounded=1;whiteSpace=wrap;html=1;glass=0;fontFamily=Lucida Console;shadow=0;strokeColor=#0060ff;strokeWidth=2;align=center;verticalAlign=middle;swimlaneFillColor=none;fontSize=12;fontColor=default;fontStyle=1;fillColor=#FFFFFF;gradientColor=none;labelBorderColor=none;" vertex="1" parent="y7ZG7yPl_qGi4kwekcJh-5">
          <mxGeometry x="40" y="300" width="120" height="60" as="geometry" />
        </mxCell>
        <mxCell id="y7ZG7yPl_qGi4kwekcJh-7" value="&lt;font&gt;D&lt;sub&gt;0&lt;/sub&gt;(B, L)&lt;/font&gt;" style="rounded=1;whiteSpace=wrap;html=1;glass=0;fontFamily=Lucida Console;shadow=0;strokeColor=#0060ff;strokeWidth=2;align=center;verticalAlign=middle;swimlaneFillColor=none;fontSize=12;fontColor=default;fontStyle=1;fillColor=#FFFFFF;gradientColor=none;labelBorderColor=none;" vertex="1" parent="y7ZG7yPl_qGi4kwekcJh-5">
          <mxGeometry x="40" y="80" width="120" height="60" as="geometry" />
        </mxCell>
        <mxCell id="y7ZG7yPl_qGi4kwekcJh-8" value="Unique" style="swimlane;whiteSpace=wrap;html=1;fontFamily=Lucida Console;fillColor=#0060ff;strokeColor=#0060ff;rounded=1;shadow=0;dashed=1;strokeWidth=2;swimlaneFillColor=none;align=center;verticalAlign=middle;fontSize=12;fontColor=#ffffff;fontStyle=1;gradientColor=none;" vertex="1" parent="1">
          <mxGeometry x="560" y="120" width="200" height="410" as="geometry" />
        </mxCell>
        <mxCell id="y7ZG7yPl_qGi4kwekcJh-9" value="&lt;font&gt;Uniqued_tokens&lt;/font&gt;&lt;div&gt;&lt;font&gt;D&lt;sub style=&quot;&quot;&gt;0&lt;/sub&gt;&lt;/font&gt;&lt;/div&gt;" style="whiteSpace=wrap;html=1;rounded=1;glass=0;fontFamily=Lucida Console;shadow=0;strokeColor=#0060ff;strokeWidth=2;align=center;verticalAlign=middle;swimlaneFillColor=none;fontSize=12;fontColor=default;fontStyle=1;fillColor=#FFFFFF;gradientColor=none;labelBorderColor=none;" vertex="1" parent="y7ZG7yPl_qGi4kwekcJh-8">
          <mxGeometry x="40" y="80" width="120" height="60" as="geometry" />
        </mxCell>
        <mxCell id="y7ZG7yPl_qGi4kwekcJh-10" value="&lt;span style=&quot;&quot;&gt;D&lt;/span&gt;&lt;sub style=&quot;&quot;&gt;1&lt;/sub&gt;&lt;span style=&quot;&quot;&gt;(B, L)&lt;/span&gt;" style="whiteSpace=wrap;html=1;rounded=1;glass=0;fontFamily=Lucida Console;shadow=0;strokeColor=#0060ff;strokeWidth=2;align=center;verticalAlign=middle;swimlaneFillColor=none;fontSize=12;fontColor=default;fontStyle=1;fillColor=#FFFFFF;gradientColor=none;labelBorderColor=none;" vertex="1" parent="y7ZG7yPl_qGi4kwekcJh-8">
          <mxGeometry x="40" y="300" width="120" height="60" as="geometry" />
        </mxCell>
        <mxCell id="y7ZG7yPl_qGi4kwekcJh-11" style="edgeStyle=orthogonalEdgeStyle;rounded=0;orthogonalLoop=1;jettySize=auto;html=1;exitX=1;exitY=0.5;exitDx=0;exitDy=0;fontFamily=Lucida Console;shadow=0;strokeColor=default;strokeWidth=1;align=center;verticalAlign=middle;swimlaneFillColor=none;fontSize=11;fontColor=default;fontStyle=1;startSize=23;fillColor=#0060ff;gradientColor=none;labelBackgroundColor=default;endArrow=classic;" edge="1" parent="y7ZG7yPl_qGi4kwekcJh-8" source="y7ZG7yPl_qGi4kwekcJh-10">
          <mxGeometry relative="1" as="geometry">
            <mxPoint x="320" y="330.1538461538462" as="targetPoint" />
          </mxGeometry>
        </mxCell>
        <mxCell id="y7ZG7yPl_qGi4kwekcJh-12" value="Locate &amp;amp; Transfer" style="swimlane;whiteSpace=wrap;html=1;fontFamily=Lucida Console;fillColor=#0060ff;strokeColor=#0060ff;rounded=1;shadow=0;dashed=1;strokeWidth=2;swimlaneFillColor=none;align=center;verticalAlign=middle;fontSize=12;fontColor=#ffffff;fontStyle=1;gradientColor=none;" vertex="1" parent="1">
          <mxGeometry x="840" y="120" width="200" height="410" as="geometry" />
        </mxCell>
        <mxCell id="y7ZG7yPl_qGi4kwekcJh-13" value="&lt;font&gt;unique_tokens&lt;sub&gt;0&lt;/sub&gt;&lt;/font&gt;" style="whiteSpace=wrap;html=1;rounded=1;glass=0;fontFamily=Lucida Console;shadow=0;strokeColor=#0060ff;strokeWidth=2;align=center;verticalAlign=middle;swimlaneFillColor=none;fontSize=12;fontColor=default;fontStyle=1;fillColor=#FFFFFF;gradientColor=none;labelBorderColor=none;" vertex="1" parent="y7ZG7yPl_qGi4kwekcJh-12">
          <mxGeometry x="40" y="80" width="120" height="60" as="geometry" />
        </mxCell>
        <mxCell id="y7ZG7yPl_qGi4kwekcJh-14" value="unique_tokens&lt;sub&gt;1&lt;/sub&gt;" style="whiteSpace=wrap;html=1;rounded=1;glass=0;fontFamily=Lucida Console;shadow=0;strokeColor=#0060ff;strokeWidth=2;align=center;verticalAlign=middle;swimlaneFillColor=none;fontSize=12;fontColor=default;fontStyle=1;fillColor=#FFFFFF;gradientColor=none;labelBorderColor=none;" vertex="1" parent="y7ZG7yPl_qGi4kwekcJh-12">
          <mxGeometry x="40" y="300" width="120" height="60" as="geometry" />
        </mxCell>
        <mxCell id="y7ZG7yPl_qGi4kwekcJh-15" style="edgeStyle=orthogonalEdgeStyle;rounded=0;orthogonalLoop=1;jettySize=auto;html=1;entryX=0;entryY=0.5;entryDx=0;entryDy=0;fontFamily=Lucida Console;" edge="1" parent="1" source="y7ZG7yPl_qGi4kwekcJh-9" target="y7ZG7yPl_qGi4kwekcJh-13">
          <mxGeometry relative="1" as="geometry" />
        </mxCell>
        <mxCell id="y7ZG7yPl_qGi4kwekcJh-16" style="edgeStyle=orthogonalEdgeStyle;rounded=1;orthogonalLoop=1;jettySize=auto;html=1;exitX=1;exitY=0.5;exitDx=0;exitDy=0;entryX=0;entryY=0.5;entryDx=0;entryDy=0;dashed=1;fontFamily=Lucida Console;curved=0;" edge="1" parent="1" source="y7ZG7yPl_qGi4kwekcJh-10" target="y7ZG7yPl_qGi4kwekcJh-13">
          <mxGeometry relative="1" as="geometry">
            <Array as="points">
              <mxPoint x="800" y="450" />
              <mxPoint x="800" y="340" />
              <mxPoint x="880" y="340" />
            </Array>
          </mxGeometry>
        </mxCell>
        <mxCell id="y7ZG7yPl_qGi4kwekcJh-17" style="edgeStyle=orthogonalEdgeStyle;rounded=1;orthogonalLoop=1;jettySize=auto;html=1;exitX=1;exitY=0.5;exitDx=0;exitDy=0;entryX=0;entryY=0.5;entryDx=0;entryDy=0;dashed=1;fontFamily=Lucida Console;curved=0;" edge="1" parent="1" source="y7ZG7yPl_qGi4kwekcJh-9" target="y7ZG7yPl_qGi4kwekcJh-14">
          <mxGeometry relative="1" as="geometry">
            <Array as="points">
              <mxPoint x="800" y="230" />
              <mxPoint x="800" y="340" />
              <mxPoint x="880" y="340" />
            </Array>
          </mxGeometry>
        </mxCell>
        <mxCell id="y7ZG7yPl_qGi4kwekcJh-18" style="edgeStyle=orthogonalEdgeStyle;rounded=1;orthogonalLoop=1;jettySize=auto;html=1;exitX=1;exitY=0.5;exitDx=0;exitDy=0;entryX=0;entryY=0.5;entryDx=0;entryDy=0;dashed=1;fontFamily=Lucida Console;curved=0;" edge="1" parent="1" source="y7ZG7yPl_qGi4kwekcJh-6" target="y7ZG7yPl_qGi4kwekcJh-9">
          <mxGeometry relative="1" as="geometry">
            <Array as="points">
              <mxPoint x="520" y="450" />
              <mxPoint x="520" y="340" />
              <mxPoint x="600" y="340" />
            </Array>
          </mxGeometry>
        </mxCell>
        <mxCell id="y7ZG7yPl_qGi4kwekcJh-19" value="Embedding &amp;amp; Get Q, K, V" style="swimlane;whiteSpace=wrap;html=1;fontFamily=Lucida Console;fillColor=#0060ff;strokeColor=#0060ff;rounded=1;shadow=0;dashed=1;strokeWidth=2;swimlaneFillColor=none;align=center;verticalAlign=middle;fontSize=12;fontColor=#ffffff;fontStyle=1;gradientColor=none;" vertex="1" parent="1">
          <mxGeometry x="1120" y="120" width="200" height="410" as="geometry" />
        </mxCell>
        <mxCell id="y7ZG7yPl_qGi4kwekcJh-20" value="&lt;font&gt;Q&lt;sub&gt;0&lt;/sub&gt;&lt;/font&gt;&lt;div&gt;&lt;font&gt;K&lt;/font&gt;&lt;span style=&quot;font-size: 10px; background-color: initial;&quot;&gt;0&lt;/span&gt;&lt;/div&gt;&lt;div&gt;&lt;font&gt;V&lt;/font&gt;&lt;span style=&quot;font-size: 10px; background-color: initial;&quot;&gt;0&lt;/span&gt;&lt;/div&gt;" style="whiteSpace=wrap;html=1;rounded=1;glass=0;fontFamily=Lucida Console;shadow=0;strokeColor=#0060ff;strokeWidth=2;align=center;verticalAlign=middle;swimlaneFillColor=none;fontSize=12;fontColor=default;fontStyle=1;fillColor=#FFFFFF;gradientColor=none;labelBorderColor=none;" vertex="1" parent="y7ZG7yPl_qGi4kwekcJh-19">
          <mxGeometry x="40" y="80" width="120" height="60" as="geometry" />
        </mxCell>
        <mxCell id="y7ZG7yPl_qGi4kwekcJh-21" value="Q&lt;span style=&quot;font-size: 10px;&quot;&gt;&lt;sub&gt;1&lt;/sub&gt;&lt;/span&gt;&lt;div&gt;&lt;span style=&quot;&quot;&gt;K&lt;/span&gt;&lt;span style=&quot;font-size: 8.33333px; background-color: initial;&quot;&gt;1&lt;/span&gt;&lt;/div&gt;&lt;div&gt;&lt;span style=&quot;&quot;&gt;V&lt;/span&gt;&lt;span style=&quot;font-size: 8.33333px; background-color: initial;&quot;&gt;1&lt;/span&gt;&lt;/div&gt;" style="whiteSpace=wrap;html=1;rounded=1;glass=0;fontFamily=Lucida Console;shadow=0;strokeColor=#0060ff;strokeWidth=2;align=center;verticalAlign=middle;swimlaneFillColor=none;fontSize=12;fontColor=default;fontStyle=1;fillColor=#FFFFFF;gradientColor=none;labelBorderColor=none;" vertex="1" parent="y7ZG7yPl_qGi4kwekcJh-19">
          <mxGeometry x="40" y="300" width="120" height="60" as="geometry" />
        </mxCell>
        <mxCell id="y7ZG7yPl_qGi4kwekcJh-22" value="&lt;font style=&quot;font-size: 11px;&quot;&gt;All2All &amp;amp; Sparse_method.Get_Denominator&lt;/font&gt;" style="swimlane;whiteSpace=wrap;html=1;fontFamily=Lucida Console;fillColor=#e51400;strokeColor=#B20000;rounded=1;shadow=0;dashed=1;strokeWidth=2;swimlaneFillColor=none;arcSize=26;startSize=40;fontColor=#ffffff;" vertex="1" parent="1">
          <mxGeometry x="40" y="640" width="200" height="410" as="geometry" />
        </mxCell>
        <mxCell id="y7ZG7yPl_qGi4kwekcJh-23" style="edgeStyle=orthogonalEdgeStyle;rounded=0;orthogonalLoop=1;jettySize=auto;html=1;exitX=1;exitY=0.5;exitDx=0;exitDy=0;fontFamily=Lucida Console;" edge="1" parent="y7ZG7yPl_qGi4kwekcJh-22" source="y7ZG7yPl_qGi4kwekcJh-24">
          <mxGeometry relative="1" as="geometry">
            <mxPoint x="320" y="109.57142857142867" as="targetPoint" />
          </mxGeometry>
        </mxCell>
        <mxCell id="y7ZG7yPl_qGi4kwekcJh-24" value="&lt;font&gt;Q&lt;/font&gt;&lt;span style=&quot;font-size: 8.33333px;&quot;&gt;0&lt;/span&gt;&lt;div&gt;&lt;font&gt;K&lt;/font&gt;&lt;span style=&quot;font-size: 10px; background-color: initial;&quot;&gt;&lt;sub&gt;0&lt;/sub&gt;&lt;/span&gt;&lt;/div&gt;&lt;div&gt;&lt;font&gt;V&lt;/font&gt;&lt;span style=&quot;font-size: 8.33333px; background-color: initial;&quot;&gt;0&lt;/span&gt;&lt;/div&gt;" style="whiteSpace=wrap;html=1;rounded=1;glass=0;fontFamily=Lucida Console;gradientColor=none;strokeColor=#ff0d00;" vertex="1" parent="y7ZG7yPl_qGi4kwekcJh-22">
          <mxGeometry x="40" y="80" width="120" height="60" as="geometry" />
        </mxCell>
        <mxCell id="y7ZG7yPl_qGi4kwekcJh-25" style="edgeStyle=orthogonalEdgeStyle;rounded=0;orthogonalLoop=1;jettySize=auto;html=1;exitX=1;exitY=0.5;exitDx=0;exitDy=0;fontFamily=Lucida Console;" edge="1" parent="y7ZG7yPl_qGi4kwekcJh-22" source="y7ZG7yPl_qGi4kwekcJh-26">
          <mxGeometry relative="1" as="geometry">
            <mxPoint x="320" y="329.57142857142867" as="targetPoint" />
          </mxGeometry>
        </mxCell>
        <mxCell id="y7ZG7yPl_qGi4kwekcJh-26" value="&lt;span style=&quot;&quot;&gt;Q&lt;/span&gt;&lt;span style=&quot;font-size: 8.33333px;&quot;&gt;1&lt;/span&gt;&lt;div&gt;&lt;span style=&quot;&quot;&gt;K&lt;/span&gt;&lt;span style=&quot;font-size: 8.33333px; background-color: initial;&quot;&gt;1&lt;/span&gt;&lt;/div&gt;&lt;div&gt;&lt;span style=&quot;&quot;&gt;V&lt;/span&gt;&lt;span style=&quot;font-size: 8.33333px; background-color: initial;&quot;&gt;1&lt;/span&gt;&lt;/div&gt;" style="whiteSpace=wrap;html=1;rounded=1;glass=0;fontFamily=Lucida Console;gradientColor=none;strokeColor=#ff0d00;" vertex="1" parent="y7ZG7yPl_qGi4kwekcJh-22">
          <mxGeometry x="40" y="300" width="120" height="60" as="geometry" />
        </mxCell>
        <mxCell id="y7ZG7yPl_qGi4kwekcJh-27" value="All2All &amp;amp; Calc Denominator" style="swimlane;whiteSpace=wrap;html=1;fontFamily=Lucida Console;fillColor=#0060ff;strokeColor=#0060ff;rounded=1;shadow=0;dashed=1;strokeWidth=2;swimlaneFillColor=none;align=center;verticalAlign=middle;fontSize=12;fontColor=#ffffff;fontStyle=1;gradientColor=none;" vertex="1" parent="1">
          <mxGeometry x="320" y="640" width="200" height="410" as="geometry">
            <mxRectangle x="320" y="640" width="230" height="30" as="alternateBounds" />
          </mxGeometry>
        </mxCell>
        <mxCell id="y7ZG7yPl_qGi4kwekcJh-28" value="&lt;font&gt;Q&lt;span style=&quot;font-size: 8.33333px; font-weight: 400;&quot;&gt;0&lt;/span&gt;,Q&lt;span style=&quot;font-size: 8.33333px; font-weight: 400;&quot;&gt;1&lt;/span&gt;,Denom&lt;/font&gt;&lt;span style=&quot;font-size: 8.33333px; font-weight: 400;&quot;&gt;0&lt;/span&gt;&lt;div&gt;&lt;font&gt;K&lt;/font&gt;&lt;span style=&quot;font-size: 8.33333px; font-weight: 400; background-color: initial;&quot;&gt;0&lt;/span&gt;&lt;/div&gt;&lt;div&gt;&lt;font&gt;V&lt;/font&gt;&lt;span style=&quot;font-size: 8.33333px; font-weight: 400; background-color: initial;&quot;&gt;0&lt;/span&gt;&lt;/div&gt;" style="whiteSpace=wrap;html=1;rounded=1;glass=0;fontFamily=Lucida Console;shadow=0;strokeColor=#0060ff;strokeWidth=2;align=center;verticalAlign=middle;swimlaneFillColor=none;fontSize=12;fontColor=default;fontStyle=1;fillColor=#FFFFFF;gradientColor=none;labelBorderColor=none;" vertex="1" parent="y7ZG7yPl_qGi4kwekcJh-27">
          <mxGeometry x="40" y="80" width="120" height="60" as="geometry" />
        </mxCell>
        <mxCell id="y7ZG7yPl_qGi4kwekcJh-29" value="&lt;span style=&quot;&quot;&gt;Q&lt;/span&gt;&lt;span style=&quot;font-size: 8.33333px; font-weight: 400;&quot;&gt;1&lt;/span&gt;&lt;span style=&quot;&quot;&gt;,Q&lt;/span&gt;&lt;span style=&quot;font-size: 8.33333px; font-weight: 400;&quot;&gt;0&lt;/span&gt;&lt;span style=&quot;&quot;&gt;,Denom&lt;/span&gt;&lt;span style=&quot;font-size: 8.33333px; font-weight: 400;&quot;&gt;1&lt;/span&gt;&lt;div&gt;&lt;span style=&quot;&quot;&gt;K&lt;/span&gt;&lt;span style=&quot;font-size: 8.33333px; font-weight: 400; background-color: initial;&quot;&gt;1&lt;/span&gt;&lt;/div&gt;&lt;div&gt;&lt;span style=&quot;&quot;&gt;V&lt;/span&gt;&lt;span style=&quot;font-size: 8.33333px; font-weight: 400; background-color: initial;&quot;&gt;1&lt;/span&gt;&lt;/div&gt;" style="whiteSpace=wrap;html=1;rounded=1;glass=0;fontFamily=Lucida Console;shadow=0;strokeColor=#0060ff;strokeWidth=2;align=center;verticalAlign=middle;swimlaneFillColor=none;fontSize=12;fontColor=default;fontStyle=1;fillColor=#FFFFFF;gradientColor=none;labelBorderColor=none;" vertex="1" parent="y7ZG7yPl_qGi4kwekcJh-27">
          <mxGeometry x="40" y="300" width="120" height="60" as="geometry" />
        </mxCell>
        <mxCell id="y7ZG7yPl_qGi4kwekcJh-30" style="edgeStyle=orthogonalEdgeStyle;rounded=1;orthogonalLoop=1;jettySize=auto;html=1;entryX=0;entryY=0.5;entryDx=0;entryDy=0;dashed=1;fontFamily=Lucida Console;exitX=1;exitY=0.5;exitDx=0;exitDy=0;shadow=0;strokeColor=#000000;strokeWidth=1;align=center;verticalAlign=middle;swimlaneFillColor=none;fontSize=12;fontColor=#ffffff;fontStyle=1;startSize=23;fillColor=#0060ff;gradientColor=none;" edge="1" parent="y7ZG7yPl_qGi4kwekcJh-27" source="y7ZG7yPl_qGi4kwekcJh-26">
          <mxGeometry relative="1" as="geometry">
            <mxPoint x="-120" y="330" as="sourcePoint" />
            <mxPoint x="40" y="110" as="targetPoint" />
            <Array as="points">
              <mxPoint x="-40" y="330" />
              <mxPoint x="-40" y="220" />
              <mxPoint x="40" y="220" />
            </Array>
          </mxGeometry>
        </mxCell>
        <mxCell id="y7ZG7yPl_qGi4kwekcJh-31" style="edgeStyle=orthogonalEdgeStyle;rounded=1;orthogonalLoop=1;jettySize=auto;html=1;entryX=0;entryY=0.5;entryDx=0;entryDy=0;dashed=1;fontFamily=Lucida Console;exitX=1;exitY=0.5;exitDx=0;exitDy=0;shadow=0;strokeColor=#000000;strokeWidth=1;align=center;verticalAlign=middle;swimlaneFillColor=none;fontSize=12;fontColor=#ffffff;fontStyle=1;startSize=23;fillColor=#0060ff;gradientColor=none;" edge="1" parent="y7ZG7yPl_qGi4kwekcJh-27" source="y7ZG7yPl_qGi4kwekcJh-24">
          <mxGeometry relative="1" as="geometry">
            <mxPoint x="-30" y="-100" as="sourcePoint" />
            <mxPoint x="40" y="330" as="targetPoint" />
            <Array as="points">
              <mxPoint x="-40" y="110" />
              <mxPoint x="-40" y="220" />
              <mxPoint x="40" y="220" />
            </Array>
          </mxGeometry>
        </mxCell>
        <mxCell id="y7ZG7yPl_qGi4kwekcJh-32" value="All2All &amp;amp; Sparse_method.GetResult" style="swimlane;whiteSpace=wrap;html=1;fontFamily=Lucida Console;fillColor=#e51400;strokeColor=#B20000;rounded=1;shadow=0;dashed=1;strokeWidth=2;swimlaneFillColor=none;startSize=40;fontColor=#ffffff;" vertex="1" parent="1">
          <mxGeometry x="601" y="640" width="200" height="410" as="geometry" />
        </mxCell>
        <mxCell id="y7ZG7yPl_qGi4kwekcJh-33" value="&lt;font style=&quot;font-weight: 700;&quot;&gt;Q&lt;span style=&quot;font-size: 8.33333px; font-weight: 400;&quot;&gt;0&lt;/span&gt;,Denom&lt;/font&gt;&lt;span style=&quot;font-size: 8.33333px;&quot;&gt;0&lt;/span&gt;&lt;div style=&quot;font-weight: 700;&quot;&gt;Q&lt;span style=&quot;font-size: 8.33333px; font-weight: 400;&quot;&gt;1&lt;/span&gt;,Denom&lt;span style=&quot;font-size: 8.33333px; background-color: initial; font-weight: normal;&quot;&gt;1&lt;/span&gt;&lt;br&gt;&lt;/div&gt;&lt;div style=&quot;font-weight: 700;&quot;&gt;K&lt;span style=&quot;font-size: 8.33333px; font-weight: 400; background-color: initial;&quot;&gt;0&lt;/span&gt;&lt;/div&gt;&lt;div style=&quot;font-weight: 700;&quot;&gt;V&lt;span style=&quot;font-size: 8.33333px; font-weight: 400; background-color: initial;&quot;&gt;0&lt;/span&gt;&lt;/div&gt;" style="whiteSpace=wrap;html=1;rounded=1;glass=0;fontFamily=Lucida Console;gradientColor=none;strokeColor=#ff0d00;" vertex="1" parent="y7ZG7yPl_qGi4kwekcJh-32">
          <mxGeometry x="40" y="80" width="120" height="60" as="geometry" />
        </mxCell>
        <mxCell id="y7ZG7yPl_qGi4kwekcJh-34" value="&lt;div&gt;&lt;font style=&quot;font-weight: 700;&quot;&gt;Q&lt;span style=&quot;font-size: 8.33333px; font-weight: 400;&quot;&gt;1&lt;/span&gt;,Denom&lt;span style=&quot;background-color: initial; font-size: 8.33333px; font-weight: normal;&quot;&gt;1&lt;/span&gt;&lt;br&gt;&lt;/font&gt;&lt;/div&gt;&lt;font style=&quot;font-weight: 700;&quot;&gt;Q&lt;span style=&quot;font-size: 8.33333px; font-weight: 400;&quot;&gt;0&lt;/span&gt;,Denom&lt;/font&gt;&lt;span style=&quot;font-size: 8.33333px;&quot;&gt;0&lt;/span&gt;&lt;div style=&quot;font-weight: 700;&quot;&gt;K&lt;span style=&quot;font-size: 8.33333px; font-weight: 400; background-color: initial;&quot;&gt;0&lt;/span&gt;&lt;/div&gt;&lt;div style=&quot;font-weight: 700;&quot;&gt;V&lt;span style=&quot;font-size: 8.33333px; font-weight: 400; background-color: initial;&quot;&gt;0&lt;/span&gt;&lt;/div&gt;" style="whiteSpace=wrap;html=1;rounded=1;glass=0;fontFamily=Lucida Console;gradientColor=none;strokeColor=#ff0d00;" vertex="1" parent="y7ZG7yPl_qGi4kwekcJh-32">
          <mxGeometry x="40" y="300" width="120" height="60" as="geometry" />
        </mxCell>
        <mxCell id="y7ZG7yPl_qGi4kwekcJh-35" value="Reduce &amp;amp; Get Result" style="swimlane;whiteSpace=wrap;html=1;fontFamily=Lucida Console;fillColor=#0060ff;strokeColor=#0060ff;rounded=1;shadow=0;dashed=1;strokeWidth=2;swimlaneFillColor=none;startSize=40;align=center;verticalAlign=middle;fontSize=12;fontColor=#ffffff;fontStyle=1;gradientColor=none;" vertex="1" parent="1">
          <mxGeometry x="880" y="640" width="450" height="410" as="geometry" />
        </mxCell>
        <mxCell id="y7ZG7yPl_qGi4kwekcJh-36" value="" style="edgeStyle=orthogonalEdgeStyle;rounded=0;orthogonalLoop=1;jettySize=auto;html=1;fontFamily=Lucida Console;shadow=0;strokeColor=default;strokeWidth=1;align=center;verticalAlign=middle;swimlaneFillColor=none;fontSize=11;fontColor=default;fontStyle=1;startSize=23;fillColor=#0060ff;gradientColor=none;labelBackgroundColor=default;endArrow=classic;" edge="1" parent="y7ZG7yPl_qGi4kwekcJh-35" source="y7ZG7yPl_qGi4kwekcJh-37" target="y7ZG7yPl_qGi4kwekcJh-41">
          <mxGeometry relative="1" as="geometry" />
        </mxCell>
        <mxCell id="y7ZG7yPl_qGi4kwekcJh-37" value="&lt;font&gt;R&lt;sub&gt;0&lt;/sub&gt;(B, D)&lt;/font&gt;" style="whiteSpace=wrap;html=1;rounded=1;glass=0;fontFamily=Lucida Console;shadow=0;strokeColor=#0060ff;strokeWidth=2;align=center;verticalAlign=middle;swimlaneFillColor=none;fontSize=12;fontColor=default;fontStyle=1;fillColor=#FFFFFF;gradientColor=none;labelBorderColor=none;" vertex="1" parent="y7ZG7yPl_qGi4kwekcJh-35">
          <mxGeometry x="40" y="80" width="120" height="60" as="geometry" />
        </mxCell>
        <mxCell id="y7ZG7yPl_qGi4kwekcJh-38" style="edgeStyle=orthogonalEdgeStyle;rounded=0;orthogonalLoop=1;jettySize=auto;html=1;entryX=0;entryY=0.5;entryDx=0;entryDy=0;fontFamily=Lucida Console;shadow=0;strokeColor=default;strokeWidth=1;align=center;verticalAlign=middle;swimlaneFillColor=none;fontSize=11;fontColor=default;fontStyle=1;startSize=23;fillColor=#0060ff;gradientColor=none;labelBackgroundColor=default;endArrow=classic;" edge="1" parent="y7ZG7yPl_qGi4kwekcJh-35" source="y7ZG7yPl_qGi4kwekcJh-39" target="y7ZG7yPl_qGi4kwekcJh-41">
          <mxGeometry relative="1" as="geometry" />
        </mxCell>
        <mxCell id="y7ZG7yPl_qGi4kwekcJh-39" value="&lt;font&gt;R&lt;sub&gt;1&lt;/sub&gt;(B, D)&lt;/font&gt;" style="whiteSpace=wrap;html=1;rounded=1;glass=0;fontFamily=Lucida Console;shadow=0;strokeColor=#0060ff;strokeWidth=2;align=center;verticalAlign=middle;swimlaneFillColor=none;fontSize=12;fontColor=default;fontStyle=1;fillColor=#FFFFFF;gradientColor=none;labelBorderColor=none;" vertex="1" parent="y7ZG7yPl_qGi4kwekcJh-35">
          <mxGeometry x="40" y="300" width="120" height="60" as="geometry" />
        </mxCell>
        <mxCell id="y7ZG7yPl_qGi4kwekcJh-40" style="edgeStyle=orthogonalEdgeStyle;rounded=1;orthogonalLoop=1;jettySize=auto;html=1;exitX=1;exitY=0.5;exitDx=0;exitDy=0;fontFamily=Lucida Console;shadow=0;dashed=1;strokeColor=#0060ff;strokeWidth=2;align=center;verticalAlign=middle;swimlaneFillColor=none;fontSize=12;fontColor=#ffffff;fontStyle=1;startSize=23;fillColor=#0060ff;gradientColor=none;" edge="1" parent="y7ZG7yPl_qGi4kwekcJh-35" source="y7ZG7yPl_qGi4kwekcJh-41">
          <mxGeometry relative="1" as="geometry">
            <mxPoint x="520" y="220" as="targetPoint" />
          </mxGeometry>
        </mxCell>
        <mxCell id="y7ZG7yPl_qGi4kwekcJh-41" value="&lt;font&gt;R(B, D)&lt;/font&gt;" style="whiteSpace=wrap;html=1;rounded=1;glass=0;fontFamily=Lucida Console;shadow=0;strokeColor=#0060ff;strokeWidth=2;align=center;verticalAlign=middle;swimlaneFillColor=none;fontSize=12;fontColor=default;fontStyle=1;fillColor=#FFFFFF;gradientColor=none;labelBorderColor=none;" vertex="1" parent="y7ZG7yPl_qGi4kwekcJh-35">
          <mxGeometry x="280" y="80" width="120" height="280" as="geometry" />
        </mxCell>
        <mxCell id="y7ZG7yPl_qGi4kwekcJh-42" value="&lt;font&gt;GPU&lt;sub&gt;0&lt;/sub&gt;&lt;/font&gt;" style="rounded=1;whiteSpace=wrap;html=1;glass=0;fontFamily=Lucida Console;" vertex="1" parent="1">
          <mxGeometry x="80" y="200" width="120" height="60" as="geometry" />
        </mxCell>
        <mxCell id="y7ZG7yPl_qGi4kwekcJh-43" value="&lt;font&gt;GPU&lt;sub&gt;1&lt;/sub&gt;&lt;/font&gt;" style="rounded=1;whiteSpace=wrap;html=1;glass=0;fontFamily=Lucida Console;" vertex="1" parent="1">
          <mxGeometry x="80" y="420" width="120" height="60" as="geometry" />
        </mxCell>
        <mxCell id="y7ZG7yPl_qGi4kwekcJh-44" style="edgeStyle=orthogonalEdgeStyle;rounded=0;orthogonalLoop=1;jettySize=auto;html=1;entryX=0;entryY=0.5;entryDx=0;entryDy=0;fontFamily=Lucida Console;" edge="1" parent="1" source="y7ZG7yPl_qGi4kwekcJh-13" target="y7ZG7yPl_qGi4kwekcJh-20">
          <mxGeometry relative="1" as="geometry" />
        </mxCell>
        <mxCell id="y7ZG7yPl_qGi4kwekcJh-45" style="edgeStyle=orthogonalEdgeStyle;rounded=0;orthogonalLoop=1;jettySize=auto;html=1;exitX=1;exitY=0.5;exitDx=0;exitDy=0;entryX=0;entryY=0.5;entryDx=0;entryDy=0;fontFamily=Lucida Console;" edge="1" parent="1" source="y7ZG7yPl_qGi4kwekcJh-14" target="y7ZG7yPl_qGi4kwekcJh-21">
          <mxGeometry relative="1" as="geometry" />
        </mxCell>
        <mxCell id="y7ZG7yPl_qGi4kwekcJh-46" style="edgeStyle=orthogonalEdgeStyle;rounded=0;orthogonalLoop=1;jettySize=auto;html=1;exitX=1;exitY=0.5;exitDx=0;exitDy=0;entryX=0;entryY=0.5;entryDx=0;entryDy=0;fontFamily=Lucida Console;" edge="1" parent="1" source="y7ZG7yPl_qGi4kwekcJh-28" target="y7ZG7yPl_qGi4kwekcJh-33">
          <mxGeometry relative="1" as="geometry" />
        </mxCell>
        <mxCell id="y7ZG7yPl_qGi4kwekcJh-47" style="edgeStyle=orthogonalEdgeStyle;rounded=0;orthogonalLoop=1;jettySize=auto;html=1;exitX=1;exitY=0.5;exitDx=0;exitDy=0;entryX=0;entryY=0.5;entryDx=0;entryDy=0;fontFamily=Lucida Console;" edge="1" parent="1" source="y7ZG7yPl_qGi4kwekcJh-29" target="y7ZG7yPl_qGi4kwekcJh-34">
          <mxGeometry relative="1" as="geometry" />
        </mxCell>
        <mxCell id="y7ZG7yPl_qGi4kwekcJh-48" style="edgeStyle=orthogonalEdgeStyle;rounded=0;orthogonalLoop=1;jettySize=auto;html=1;exitX=1;exitY=0.5;exitDx=0;exitDy=0;fontFamily=Lucida Console;" edge="1" parent="1" source="y7ZG7yPl_qGi4kwekcJh-33" target="y7ZG7yPl_qGi4kwekcJh-37">
          <mxGeometry relative="1" as="geometry" />
        </mxCell>
        <mxCell id="y7ZG7yPl_qGi4kwekcJh-49" style="edgeStyle=orthogonalEdgeStyle;rounded=0;orthogonalLoop=1;jettySize=auto;html=1;exitX=1;exitY=0.5;exitDx=0;exitDy=0;entryX=0;entryY=0.5;entryDx=0;entryDy=0;fontFamily=Lucida Console;" edge="1" parent="1" source="y7ZG7yPl_qGi4kwekcJh-34" target="y7ZG7yPl_qGi4kwekcJh-39">
          <mxGeometry relative="1" as="geometry" />
        </mxCell>
        <mxCell id="y7ZG7yPl_qGi4kwekcJh-50" style="edgeStyle=orthogonalEdgeStyle;rounded=0;orthogonalLoop=1;jettySize=auto;html=1;exitX=1;exitY=0.5;exitDx=0;exitDy=0;entryX=0;entryY=0.5;entryDx=0;entryDy=0;fontFamily=Lucida Console;" edge="1" parent="1" source="y7ZG7yPl_qGi4kwekcJh-20" target="y7ZG7yPl_qGi4kwekcJh-24">
          <mxGeometry relative="1" as="geometry">
            <Array as="points">
              <mxPoint x="1300" y="230" />
              <mxPoint x="1300" y="550" />
              <mxPoint x="60" y="550" />
              <mxPoint x="60" y="760" />
              <mxPoint x="80" y="760" />
            </Array>
          </mxGeometry>
        </mxCell>
        <mxCell id="y7ZG7yPl_qGi4kwekcJh-51" style="edgeStyle=orthogonalEdgeStyle;rounded=0;orthogonalLoop=1;jettySize=auto;html=1;exitX=1;exitY=0.5;exitDx=0;exitDy=0;entryX=0;entryY=0.5;entryDx=0;entryDy=0;fontFamily=Lucida Console;" edge="1" parent="1" source="y7ZG7yPl_qGi4kwekcJh-21" target="y7ZG7yPl_qGi4kwekcJh-26">
          <mxGeometry relative="1" as="geometry">
            <Array as="points">
              <mxPoint x="1300" y="450" />
              <mxPoint x="1300" y="590" />
              <mxPoint x="60" y="590" />
              <mxPoint x="60" y="970" />
            </Array>
          </mxGeometry>
        </mxCell>
        <mxCell id="y7ZG7yPl_qGi4kwekcJh-52" style="edgeStyle=orthogonalEdgeStyle;rounded=1;orthogonalLoop=1;jettySize=auto;html=1;exitX=1;exitY=0.5;exitDx=0;exitDy=0;entryX=0;entryY=0.5;entryDx=0;entryDy=0;dashed=1;fontFamily=Lucida Console;curved=0;" edge="1" parent="1" source="y7ZG7yPl_qGi4kwekcJh-29" target="y7ZG7yPl_qGi4kwekcJh-33">
          <mxGeometry relative="1" as="geometry">
            <Array as="points">
              <mxPoint x="560" y="970" />
              <mxPoint x="560" y="860" />
              <mxPoint x="640" y="860" />
            </Array>
          </mxGeometry>
        </mxCell>
        <mxCell id="y7ZG7yPl_qGi4kwekcJh-53" style="edgeStyle=orthogonalEdgeStyle;rounded=1;orthogonalLoop=1;jettySize=auto;html=1;exitX=1;exitY=0.5;exitDx=0;exitDy=0;entryX=0.083;entryY=0.5;entryDx=0;entryDy=0;entryPerimeter=0;dashed=1;fontFamily=Lucida Console;curved=0;" edge="1" parent="1" source="y7ZG7yPl_qGi4kwekcJh-28" target="y7ZG7yPl_qGi4kwekcJh-34">
          <mxGeometry relative="1" as="geometry">
            <mxPoint x="630" y="970" as="targetPoint" />
            <Array as="points">
              <mxPoint x="560" y="750" />
              <mxPoint x="560" y="860" />
              <mxPoint x="640" y="860" />
              <mxPoint x="640" y="970" />
            </Array>
          </mxGeometry>
        </mxCell>
      </root>
    </mxGraphModel>
  </diagram>
</mxfile>
